<svg xmlns="http://www.w3.org/2000/svg" id="Layer_1" data-name="Layer 1" viewBox="0 0 1500 1500"><defs><style>.cls-1{fill:#1e5f79}.cls-2{fill:#21607a}.cls-3{fill:#29a2b4}.cls-4{fill:#a8d2e4}.cls-5{fill:#a8d2e2}</style></defs><path d="M1134.12,431.69C952.76,464.31,823,570.24,723.12,720.78c-2.44-11.44-4.36-21.08-6.55-30.65-52.94-231.08-228.77-335.7-413-346.21-9.41-.53-12.07,1.78-11.53,11.15,1.92,33.68,3.24,67.39,4.6,101.1q7.49,185.59,14.66,371.19c.34,8.91,3,12.25,12,14.3C412.84,862,497.53,894.45,574.45,945.5c2.14,1.42,5.15,2.22,7.19,4a5.25,5.25,0,0,1,2,2,11.63,11.63,0,0,1,6.1,1.58,17.25,17.25,0,0,1,5.85,5,2,2,0,0,1,.29,1.71A22.38,22.38,0,0,1,601.7,963a2.08,2.08,0,0,1,.72,1.76,31.27,31.27,0,0,1,8.61,6.8,2.53,2.53,0,0,1,1,.33,41.34,41.34,0,0,1,6,4.59,13.08,13.08,0,0,1,1.74,1.41c.63.5,1.28,1,2,1.42a77.64,77.64,0,0,1,10.91,8,2.15,2.15,0,0,1,.69,2.23c.87.85,1.62,1.92,2.38,2.59,40.19,35.19,75.23,74.72,101.39,121.65,2.6,4.66,5.12,9.37,9.26,17-1.44-45.22-1-86.74,2.08-128.25,6.62-89.22,24-176,60.27-258.09,64.84-146.91,169.5-252.53,322.17-307.43C1132.34,436.39,1135.28,436.7,1134.12,431.69Z" class="cls-1"/><path d="M1436,947.72c8.36-3.76,12-11,17.45-16.49,2-2,3.12-7.32,7.08-4.65a8.58,8.58,0,0,1,3.08,9.88c-4.52,14.27-9.9,28.16-21.81,37.94-5,4.07-6.48,8.44-7.07,14.57-3.43,35.07-13.4,67.76-37.21,94.82-22.33,25.38-49.92,34.86-83.18,27.32-20.87-4.73-34-17.25-39.54-37.87-.82-3.08-.9-6.42-4-9.35-16.85,20.44-36.83,36.16-63,42.9a136.22,136.22,0,0,1-44,3.75c-18.71-1.32-28.9-8.49-43.91-29.7-7.56,6.26-15,12.71-22.69,18.74-13.83,10.8-29.72,13.4-46.64,10.66-24.65-4-37.39-19-38-43.94-.76-33.42,11-64.71,16.18-97.11.59-3.65,1.57-7.25,1.86-10.92.8-10.1.56-20.19-8.82-26.7-9.84-6.83-19.66-2.59-29.31,1.22-6,2.36-8.1,6.89-9.38,13.14-10.43,51.15-21.49,102.17-31.84,153.34-1.86,9.22-5.08,13.07-15.09,12.26a288.68,288.68,0,0,0-39.46-.08c-9.22.52-11.57-2.73-9.22-11.15,1.19-4.29,3.09-8.57,1.79-14.06-8,5.44-15.55,11-23.47,15.86-9.18,5.68-19,9.34-30.2,9-37.95-1.07-56.57-21.57-49.84-59.21,9-50.16,20.34-99.9,30.55-149.84,1.13-5.53,4-7.12,9.4-7,14.81.34,29.65.66,44.42-.08,9.82-.49,10.48,3.14,8.67,11.47q-15.24,69.9-29.58,140c-3.93,19.16,7.84,29.38,26.39,23.28,13.05-4.3,21.73-11.16,24.62-26.85,8.57-46.48,19.4-92.54,28.91-138.85,1.38-6.71,4.06-8.69,10.58-8.5,14.39.41,28.84.83,43.18-.11,10.59-.69,12.06,3,8.65,11.77-.85,2.16-.55,4.78-.88,8.24,10.77-5.07,19.75-11.49,30.09-15.34,19.59-7.3,37.87-6.77,54.18,7.64,16.85,14.89,22.91,33.58,18.43,55.63q-8.6,42.32-17.33,84.61c-1.68,8.12-2,15.71,6.55,20.43s24.52,3,30.44-3c3.25-3.3,1.66-7,1.48-10.48-2-39.78,3.13-78.09,23.84-113,25.6-43.18,69.11-55.79,111.23-46,17.78,4.13,25,16.15,22.6,34-.58,4.25-.59,8.35-7.27,5.87-5.87-2.19-12.06.17-17.95,1.18-.51-.91-1.31-1.66-1.18-2.21,1.78-7.78,3.72-15.9-4.36-21.24-7.73-5.1-15.78-3-23.39,1.11-11.84,6.3-18.94,16.9-24.75,28.37a184,184,0,0,0-19.76,99.13c1.78,22.94,13.94,33.34,36.7,31.35,23.74-2.08,42.27-14.72,59-30.58,3.9-3.69,2.37-8.47,2.52-12.84,1.17-34.33,8.09-67,28.16-95.66,24-34.3,67.81-51.49,104.78-41.57a42.73,42.73,0,0,1,15.49,7.24c6.29,4.88,6.48,11.2,3.81,17.73-2.87,7-9.21,10.33-16.07,12.27-2.9.82-3.71-2.49-5.24-4.32-8.86-10.59-19.36-12.26-31.59-4.88-8.72,5.26-14.68,13.21-19.26,22-15.68,30.21-21.54,62.89-22.44,96.48-.47,17.64,6.23,26.49,19.75,30.11,13.83,3.72,24-.67,33-14.88,12.45-19.55,16.65-41.8,20.45-64.15.56-3.28-.94-4.7-3.47-6.79-9.53-7.92-10.71-18.72-4.21-30.93,7.36-13.83,20.24-20.81,31.94-17.91C1433.55,936.58,1435.09,941.71,1436,947.72Z" class="cls-2"/><path d="M654.29,1020c-7.82-10.08-16.51-19.47-24.88-29.12-.07-.06-.14-.1-.21-.17-.48-.44-1-.85-1.5-1.27-2-.5-3.54-1.4-4.23-3.17-1.47-1-3-2-4.47-2.94a29.67,29.67,0,0,1-2.64-2c-1.54-.6-2.83-1.39-3.32-2.8a25.77,25.77,0,0,0-3.48-2.47,2.21,2.21,0,0,1-1.17-1.55c-4.42-1-7.4-4.69-10.7-7.77a2.44,2.44,0,0,1-.64.29,2.6,2.6,0,0,1-1.91-.25c-.25-.12-.51-.24-.78-.35-1.22-.5-2.47-1-3.66-1.55a11.53,11.53,0,0,1-1.85-1.17,10.09,10.09,0,0,1-1.9-2,1.38,1.38,0,0,1-.24-.52c-.11-.06-.23-.11-.34-.18a16.87,16.87,0,0,1-5.54-4.37,9.09,9.09,0,0,1-1-1.79l-.36-.34c-2.84-.93-5.09-3.33-7.61-4.81a566,566,0,0,0-55.67-29.1c-68-30.63-138.88-52.54-211.92-67.34-10.46-2.11-14.41-6-14.6-17.53-.72-44.81-3-89.6-4.52-134.41-2.76-81.4-5.71-162.8-7.74-244.22-.28-11.2-4-14.85-14.08-16.76-36.56-6.93-72.74-2.71-109.07,1.9-9.88,1.26-12.81,3.36-10.15,14q55.5,222.45,110.24,445.1c7.37,29.76,7.53,30,38.62,30.42,51.46.67,102.47,5.57,152.91,15.76,62.91,12.7,123,32.65,175.89,70.49a254.09,254.09,0,0,1,57.27,57.14C676.25,1054.25,666.9,1036.3,654.29,1020Z" class="cls-3"/><path d="M657.45,1068.88c-23.23-13.06-46.58-25.83-71.78-34.86-41.89-15-85-23.61-129.34-27.37a537,537,0,0,0-56.54-2,770.69,770.69,0,0,0-150.88,18.25c-9,2-13.32.45-17.07-8C207.15,958.82,182,903,157.06,847.05q-38.35-86.14-76.54-172.38Q59.24,626.79,37.76,579c-2.07-4.6-3.51-8.5,2.55-11,30.75-12.77,61.8-24.61,95.63-25.63,11.88-.36,19,4.5,22.3,17.65C189.42,683.24,221.33,806.31,253,929.44c4.06,15.78,4.51,16.33,23.31,15.43,83.27-4,164,8.91,242.33,36.94a416.12,416.12,0,0,1,133.2,77.81c2.75,2.38,5.87,4.71,5.88,9Z" class="cls-4"/><path d="M859.79,804.18c20.23-.06,34.85,14.63,34.76,34.92-.09,19.39-14.93,34-34.55,34a33.89,33.89,0,0,1-34.26-34.41C825.79,819.05,840.4,804.24,859.79,804.18Z" class="cls-2"/><path d="M657.73,1068.6l1.08,1.25-1.36-1Z" class="cls-5"/><path d="M627.7,989.47s-40-33.11-48.19-34.86-7,5.55-7,5.55,14,18.76,14.41,19.35,21.91,16,21.91,16Z" class="cls-3"/><path d="M575.86,946.31s54,37.51,58.77,44.54,4.41-9,4.41-9l-15.4-25.27-12.24-6.12-20.73-10.86Z" class="cls-1"/><path d="M246.16,1206.3h24.93V1212h-31.9v-52.61h7Z" class="cls-1"/><path d="M271.47,1174.18l-3.8-2.61a17.3,17.3,0,0,0,3.47-9.9v-5.2h6.62v4.7a16.93,16.93,0,0,1-1.79,7.21A16.74,16.74,0,0,1,271.47,1174.18Z" class="cls-1"/><path d="M321.74,1187.65h-22.8v18.65h26.49V1212H292v-52.61h33.07V1165H298.94v17h22.8Z" class="cls-1"/><path d="M335.88,1192.1q0-9,4.27-14.47a14.5,14.5,0,0,1,22-.78v-20.38h6.68V1212h-6.14l-.33-4.19q-4,4.92-11.16,4.91a13.33,13.33,0,0,1-11.07-5.56q-4.29-5.57-4.29-14.53Zm6.69.76q0,6.65,2.74,10.4a8.87,8.87,0,0,0,7.59,3.76,9.75,9.75,0,0,0,9.29-5.71v-18a9.83,9.83,0,0,0-9.22-5.52,8.92,8.92,0,0,0-7.66,3.79Q342.57,1185.42,342.57,1192.86Z" class="cls-1"/><path d="M408.56,1208.1q-3.9,4.59-11.45,4.59-6.25,0-9.53-3.63t-3.3-10.75v-25.44H391v25.26q0,8.89,7.23,8.89,7.67,0,10.19-5.71v-28.44h6.68V1212H408.7Z" class="cls-1"/><path d="M446.08,1207.24a9.66,9.66,0,0,0,6.25-2.17,7.63,7.63,0,0,0,3-5.42h6.33a12.2,12.2,0,0,1-2.32,6.39,15.25,15.25,0,0,1-5.69,4.85,16.45,16.45,0,0,1-7.53,1.8q-8,0-12.7-5.33t-4.72-14.58v-1.12a23.49,23.49,0,0,1,2.1-10.15,16,16,0,0,1,6-6.9,17.11,17.11,0,0,1,9.27-2.46,15.69,15.69,0,0,1,10.93,3.94,14.12,14.12,0,0,1,4.65,10.23h-6.33a9.23,9.23,0,0,0-2.87-6.24,9,9,0,0,0-6.38-2.44,9.36,9.36,0,0,0-7.89,3.67q-2.81,3.68-2.8,10.61v1.26q0,6.77,2.78,10.41A9.4,9.4,0,0,0,446.08,1207.24Z" class="cls-1"/><path d="M498.45,1212a13.82,13.82,0,0,1-.94-4.12,14.91,14.91,0,0,1-11.13,4.84,13.81,13.81,0,0,1-9.49-3.27,10.57,10.57,0,0,1-3.7-8.29,11.05,11.05,0,0,1,4.64-9.48q4.65-3.39,13.07-3.38h6.5v-3.07a7.52,7.52,0,0,0-2.1-5.59q-2.08-2.07-6.17-2.07a9.76,9.76,0,0,0-6,1.8,5.31,5.31,0,0,0-2.42,4.37H474a9.24,9.24,0,0,1,2.07-5.65,14.24,14.24,0,0,1,5.64-4.32,19,19,0,0,1,7.82-1.59q6.76,0,10.59,3.38a12.16,12.16,0,0,1,4,9.3v18a21.88,21.88,0,0,0,1.38,8.56v.58Zm-11.1-5.09a11.81,11.81,0,0,0,6-1.63,9.76,9.76,0,0,0,4.08-4.23v-8h-5.24q-12.29,0-12.28,7.19a6.08,6.08,0,0,0,2.09,4.92A8.06,8.06,0,0,0,487.35,1206.88Z" class="cls-1"/><path d="M528.81,1163.41v9.46h7.3V1178h-7.3v24.28a5.39,5.39,0,0,0,1,3.52,4.08,4.08,0,0,0,3.32,1.18,16.08,16.08,0,0,0,3.18-.43V1212a19.86,19.86,0,0,1-5.13.71q-4.49,0-6.76-2.71c-1.51-1.8-2.27-4.37-2.27-7.69V1178H515v-5.17h7.12v-9.46Z" class="cls-1"/><path d="M549.13,1162.5a4,4,0,0,1,1-2.74,3.71,3.71,0,0,1,2.94-1.12,3.77,3.77,0,0,1,3,1.12,3.92,3.92,0,0,1,1,2.74,3.78,3.78,0,0,1-1,2.71,3.82,3.82,0,0,1-3,1.09,3.76,3.76,0,0,1-2.94-1.09A3.81,3.81,0,0,1,549.13,1162.5Zm7.23,49.47h-6.69v-39.1h6.69Z" class="cls-1"/><path d="M570.46,1192.06a23.15,23.15,0,0,1,2.26-10.33,16.83,16.83,0,0,1,6.29-7.08,17,17,0,0,1,9.19-2.5,16.47,16.47,0,0,1,12.92,5.53q4.93,5.53,4.93,14.71v.47a23.25,23.25,0,0,1-2.18,10.24,16.59,16.59,0,0,1-6.25,7.06,17.29,17.29,0,0,1-9.34,2.53,16.42,16.42,0,0,1-12.88-5.53q-4.93-5.52-4.94-14.63Zm6.72.8q0,6.5,3,10.44a10.22,10.22,0,0,0,16.17-.06q3-4,3-11.18,0-6.43-3-10.42a9.73,9.73,0,0,0-8.12-4,9.6,9.6,0,0,0-8,3.94Q577.19,1185.53,577.18,1192.86Z" class="cls-1"/><path d="M625.94,1172.87l.22,4.92a14.23,14.23,0,0,1,11.7-5.64q12.4,0,12.51,14V1212h-6.69V1186.1c0-2.82-.67-4.9-1.93-6.25s-3.24-2-5.91-2a9.62,9.62,0,0,0-5.71,1.73,11.81,11.81,0,0,0-3.83,4.55V1212h-6.68v-39.1Z" class="cls-1"/><path d="M730.64,1187.36a32.45,32.45,0,0,1-2.6,13.5,19.73,19.73,0,0,1-7.37,8.8,20.31,20.31,0,0,1-11.13,3,19.61,19.61,0,0,1-18.48-11.76,31.25,31.25,0,0,1-2.73-13.1V1184a32.16,32.16,0,0,1,2.64-13.41,19.51,19.51,0,0,1,18.5-12,20.47,20.47,0,0,1,11.15,3,19.72,19.72,0,0,1,7.42,8.85,32.65,32.65,0,0,1,2.6,13.5Zm-6.9-3.39q0-9.36-3.76-14.36a12.38,12.38,0,0,0-10.51-5,12.24,12.24,0,0,0-10.35,5q-3.78,5-3.89,13.89v3.86q0,9.08,3.81,14.26a13.38,13.38,0,0,0,20.91.29q3.67-4.9,3.79-14Z" class="cls-1"/><path d="M748.47,1212V1178h-6.18v-5.17h6.18v-4q0-6.28,3.36-9.72t9.5-3.43a18,18,0,0,1,4.59.61l-.36,5.39a18.93,18.93,0,0,0-3.61-.33,6.53,6.53,0,0,0-5,1.91,7.7,7.7,0,0,0-1.77,5.45v4.13h8.35V1178h-8.35V1212Z" class="cls-1"/><path d="M779.34,1212V1178h-6.18v-5.17h6.18v-4q0-6.28,3.36-9.72t9.5-3.43a18,18,0,0,1,4.59.61l-.36,5.39a18.93,18.93,0,0,0-3.61-.33,6.53,6.53,0,0,0-5,1.91,7.7,7.7,0,0,0-1.77,5.45v4.13h8.35V1178H786V1212Z" class="cls-1"/><path d="M822.28,1212.69a17.1,17.1,0,0,1-12.94-5.22q-5-5.22-5-14v-1.23a23.49,23.49,0,0,1,2.22-10.39,17.28,17.28,0,0,1,6.21-7.15,15.6,15.6,0,0,1,8.66-2.59q7.62,0,11.85,5t4.23,14.39v2.78H811a13.9,13.9,0,0,0,3.38,9.34,10.64,10.64,0,0,0,8.22,3.56,11.59,11.59,0,0,0,6-1.45,15,15,0,0,0,4.3-3.83l4.08,3.18Q832.1,1212.7,822.28,1212.69Zm-.83-35a8.94,8.94,0,0,0-6.8,2.95,14.27,14.27,0,0,0-3.39,8.26h19.58v-.51c-.19-3.4-1.11-6-2.74-7.89A8.4,8.4,0,0,0,821.45,1177.64Z" class="cls-1"/><path d="M869.34,1178.87a20,20,0,0,0-3.29-.25q-6.59,0-8.93,5.6V1212h-6.68v-39.1h6.5l.11,4.52a10.41,10.41,0,0,1,9.32-5.24,6.83,6.83,0,0,1,3,.51Z" class="cls-1"/><path d="M891.53,1163.41v9.46h7.3V1178h-7.3v24.28a5.39,5.39,0,0,0,1,3.52,4.08,4.08,0,0,0,3.32,1.18,16.08,16.08,0,0,0,3.18-.43V1212a19.86,19.86,0,0,1-5.13.71c-3,0-5.24-.9-6.75-2.71s-2.28-4.37-2.28-7.69V1178h-7.12v-5.17h7.12v-9.46Z" class="cls-1"/><path d="M928,1212.69a17.06,17.06,0,0,1-12.93-5.22q-5-5.22-5-14v-1.23a23.49,23.49,0,0,1,2.22-10.39,17.3,17.3,0,0,1,6.22-7.15,15.55,15.55,0,0,1,8.65-2.59q7.62,0,11.85,5t4.23,14.39v2.78H916.8a14,14,0,0,0,3.38,9.34,10.64,10.64,0,0,0,8.22,3.56,11.59,11.59,0,0,0,6-1.45,15,15,0,0,0,4.3-3.83l4.08,3.18Q937.88,1212.7,928,1212.69Zm-.83-35a8.92,8.92,0,0,0-6.79,2.95,14.34,14.34,0,0,0-3.4,8.26h19.59v-.51c-.2-3.4-1.11-6-2.75-7.89A8.4,8.4,0,0,0,927.21,1177.64Z" class="cls-1"/><path d="M956,1222.45l-3.8-2.6a17.36,17.36,0,0,0,3.54-9.76v-6h6.54v5.24a16.4,16.4,0,0,1-1.79,7.3A17.14,17.14,0,0,1,956,1222.45Z" class="cls-1"/><path d="M1016,1188.52q-8.93-2.57-13-6.31a12,12,0,0,1-4.07-9.23,12.74,12.74,0,0,1,5-10.28q5-4.07,12.92-4.06a21.63,21.63,0,0,1,9.66,2.09,15.9,15.9,0,0,1,6.58,5.79,14.78,14.78,0,0,1,2.33,8h-7a9.62,9.62,0,0,0-3-7.52c-2-1.83-4.88-2.74-8.56-2.74-3.42,0-6.09.76-8,2.26a7.57,7.57,0,0,0-2.87,6.28,6.78,6.78,0,0,0,2.73,5.45q2.73,2.23,9.28,4.07a43.49,43.49,0,0,1,10.27,4.07,15.49,15.49,0,0,1,5.49,5.19,13.24,13.24,0,0,1,1.79,7,12.29,12.29,0,0,1-5,10.25q-5,3.84-13.33,3.84a24.83,24.83,0,0,1-10.12-2.07,17.08,17.08,0,0,1-7.24-5.7,13.85,13.85,0,0,1-2.55-8.2h7a9.08,9.08,0,0,0,3.53,7.54q3.51,2.76,9.41,2.76,5.49,0,8.42-2.24a7.27,7.27,0,0,0,2.92-6.11,7.15,7.15,0,0,0-2.71-6Q1023.08,1190.57,1016,1188.52Z" class="cls-1"/><path d="M1048.52,1162.5a4,4,0,0,1,1-2.74,3.71,3.71,0,0,1,2.94-1.12,3.8,3.8,0,0,1,3,1.12,4,4,0,0,1,1,2.74,3.62,3.62,0,0,1-4,3.8,3.76,3.76,0,0,1-2.94-1.09A3.86,3.86,0,0,1,1048.52,1162.5Zm7.23,49.47h-6.68v-39.1h6.68Z" class="cls-1"/><path d="M1077.91,1172.87l.18,4.34a14.46,14.46,0,0,1,11.6-5.06q8.2,0,11.17,6.29a14.73,14.73,0,0,1,5.07-4.55,15,15,0,0,1,7.39-1.74q12.87,0,13.08,13.62V1212h-6.68v-25.8q0-4.18-1.92-6.27c-1.27-1.38-3.42-2.07-6.43-2.07a8.66,8.66,0,0,0-9,8.2V1212h-6.72v-25.62q0-8.52-8.35-8.52-6.57,0-9,5.6V1212h-6.68v-39.1Z" class="cls-1"/><path d="M1174.69,1192.86q0,8.92-4.08,14.38a13.11,13.11,0,0,1-11.06,5.45q-7.12,0-11.2-4.51V1227h-6.68v-54.13h6.1l.33,4.34q4.08-5.06,11.34-5.06a13.33,13.33,0,0,1,11.15,5.31q4.1,5.31,4.1,14.78Zm-6.68-.76q0-6.61-2.82-10.44a9.07,9.07,0,0,0-7.73-3.83,9.82,9.82,0,0,0-9.11,5.38v18.68a9.86,9.86,0,0,0,9.18,5.35,9,9,0,0,0,7.64-3.81Q1168,1199.61,1168,1192.1Z" class="cls-1"/><path d="M1195.62,1212h-6.68v-55.5h6.68Z" class="cls-1"/><path d="M1227.72,1212.69a17.06,17.06,0,0,1-12.93-5.22q-5-5.22-5-14v-1.23a23.49,23.49,0,0,1,2.22-10.39,17.3,17.3,0,0,1,6.22-7.15,15.55,15.55,0,0,1,8.65-2.59q7.62,0,11.85,5t4.23,14.39v2.78h-26.48a13.89,13.89,0,0,0,3.37,9.34,10.64,10.64,0,0,0,8.22,3.56,11.59,11.59,0,0,0,6-1.45,15,15,0,0,0,4.3-3.83l4.08,3.18Q1237.56,1212.7,1227.72,1212.69Zm-.83-35a8.92,8.92,0,0,0-6.79,2.95,14.34,14.34,0,0,0-3.4,8.26h19.59v-.51c-.2-3.4-1.11-6-2.75-7.89A8.39,8.39,0,0,0,1226.89,1177.64Z" class="cls-1"/><path d="M1262.17,1172.87l.18,4.34a14.45,14.45,0,0,1,11.6-5.06q8.21,0,11.17,6.29a14.73,14.73,0,0,1,5.07-4.55,15,15,0,0,1,7.39-1.74q12.87,0,13.08,13.62V1212H1304v-25.8q0-4.18-1.92-6.27t-6.43-2.07a8.66,8.66,0,0,0-9,8.2V1212h-6.72v-25.62q0-8.52-8.35-8.52c-4.39,0-7.38,1.86-9,5.6V1212h-6.68v-39.1Z" class="cls-1"/><path d="M1342.15,1212.69a17.09,17.09,0,0,1-12.94-5.22q-5-5.22-5-14v-1.23a23.36,23.36,0,0,1,2.23-10.39,17.28,17.28,0,0,1,6.21-7.15,15.57,15.57,0,0,1,8.65-2.59q7.64,0,11.86,5t4.22,14.39v2.78h-26.48a13.85,13.85,0,0,0,3.38,9.34,10.61,10.61,0,0,0,8.22,3.56,11.53,11.53,0,0,0,6-1.45,14.88,14.88,0,0,0,4.3-3.83l4.09,3.18Q1352,1212.7,1342.15,1212.69Zm-.84-35a8.94,8.94,0,0,0-6.79,2.95,14.27,14.27,0,0,0-3.39,8.26h19.58v-.51q-.29-5.1-2.75-7.89A8.39,8.39,0,0,0,1341.31,1177.64Z" class="cls-1"/><path d="M1376.63,1172.87l.22,4.92a14.22,14.22,0,0,1,11.7-5.64q12.39,0,12.5,14V1212h-6.68V1186.1c0-2.82-.67-4.9-1.93-6.25s-3.24-2-5.91-2a9.62,9.62,0,0,0-5.71,1.73,11.81,11.81,0,0,0-3.83,4.55V1212h-6.68v-39.1Z" class="cls-1"/><path d="M1425.39,1163.41v9.46h7.29V1178h-7.29v24.28a5.4,5.4,0,0,0,1,3.52,4.09,4.09,0,0,0,3.33,1.18,16.08,16.08,0,0,0,3.18-.43V1212a19.88,19.88,0,0,1-5.14.71q-4.47,0-6.75-2.71c-1.52-1.8-2.28-4.37-2.28-7.69V1178h-7.12v-5.17h7.12v-9.46Z" class="cls-1"/><path d="M1445.81,1208.47a4.21,4.21,0,0,1,1-2.89,3.91,3.91,0,0,1,3.09-1.16,4,4,0,0,1,3.13,1.16,4.09,4.09,0,0,1,1.06,2.89,3.89,3.89,0,0,1-1.06,2.78,4.14,4.14,0,0,1-3.13,1.12,3.72,3.72,0,0,1-4.12-3.9Z" class="cls-1"/></svg>